<?xml version="1.0" encoding="UTF-8" standalone="no"?>
<svg
   xmlns:dc="http://purl.org/dc/elements/1.1/"
   xmlns:cc="http://web.resource.org/cc/"
   xmlns:rdf="http://www.w3.org/1999/02/22-rdf-syntax-ns#"
   xmlns:svg="http://www.w3.org/2000/svg"
   xmlns="http://www.w3.org/2000/svg"
   xmlns:sodipodi="http://inkscape.sourceforge.net/DTD/sodipodi-0.dtd"
   xmlns:inkscape="http://www.inkscape.org/namespaces/inkscape"
   sodipodi:docbase="/stat/home0/ilmari/src/munin/trunk"
   sodipodi:docname="log.svg"
   inkscape:version="0.41"
   sodipodi:version="0.32"
   id="svg1481"
   height="233.192"
   width="158.802">
  <metadata
     id="metadata1512">
    <rdf:RDF
       id="RDF1514">
      <cc:Work
         id="Work1516"
         rdf:about="">
        <dc:format
           id="format1518">image/svg+xml</dc:format>
        <dc:type
           rdf:resource="http://purl.org/dc/dcmitype/StillImage"
           id="type1520" />
      </cc:Work>
    </rdf:RDF>
  </metadata>
  <sodipodi:namedview
     inkscape:current-layer="svg1481"
     inkscape:window-y="326"
     inkscape:window-x="619"
     inkscape:cy="116.59600"
     inkscape:cx="79.401003"
     inkscape:zoom="1.5523689"
     inkscape:window-height="541"
     inkscape:window-width="640"
     inkscape:pageshadow="2"
     inkscape:pageopacity="0.0"
     borderopacity="1.0"
     bordercolor="#666666"
     pagecolor="#ffffff"
     id="base" />
  <defs
     id="defs1483">
    <marker
       orient="auto"
       markerHeight="3"
       markerWidth="4"
       markerUnits="strokeWidth"
       refY="5"
       refX="0"
       viewBox="0 0 10 10"
       id="ArrowEnd">
      <path
         id="path1486"
         d="M 0 0 L 10 5 L 0 10 z" />
    </marker>
    <marker
       orient="auto"
       markerHeight="3"
       markerWidth="4"
       markerUnits="strokeWidth"
       refY="5"
       refX="10"
       viewBox="0 0 10 10"
       id="ArrowStart">
      <path
         id="path1489"
         d="M 10 0 L 0 5 L 10 10 z" />
    </marker>
  </defs>
  <g
     id="g1491">
    <path
       id="path1493"
       d="M 157.172 167.279L 157.172 166.569L 155.777 166.569L 154.614 167.483L 154.614 166.975L 153.22 166.975L 153.22 163.113L 152.059 163.113L 152.059 159.557L 151.361 159.557L 151.361 158.846L 150.198 158.846L 150.198 163.317L 148.573 163.317L 148.573 166.772L 146.829 166.772L 146.829 165.703L 145.901 166.111L 144.623 166.67L 143.693 166.67L 143.693 168.295L 141.834 168.295L 141.834 166.977L 141.834 164.942L 141.834 162.502L 140.44 162.502L 140.44 161.486L 139.044 161.486L 139.044 156.912L 137.651 156.912L 137.651 161.486L 136.954 161.791L 136.954 167.127L 135.677 167.127L 134.399 167.688L 133.003 167.688L 131.841 167.18L 129.75 167.18L 129.75 165.959L 128.354 165.959L 128.354 167.891L 127.194 167.891L 127.194 169.211L 126.261 169.211L 126.261 170.074L 124.174 170.074L 124.178 170.076L 124.178 169.516L 123.244 169.516L 123.244 162.199L 122.316 162.199L 122.316 157.219L 121.734 156.965L 121.734 153.662L 120.688 153.662L 120.688 161.488L 119.757 161.488L 119.757 169.416L 118.831 169.416L 118.831 170.076L 117.672 170.076L 117.672 169.416L 116.738 169.416L 116.738 165.248L 116.041 165.248L 116.041 160.369L 115.344 160.369L 115.344 144.926L 114.879 144.926L 114.879 137.713L 113.717 137.713L 113.717 147.565L 112.788 147.565L 112.788 167.586L 112.09 167.893L 112.09 169.416L 111.163 169.416L 111.163 167.992L 110.697 167.992L 110.697 165.352L 109.535 165.352L 109.535 163.725L 108.604 163.725L 108.604 166.774L 107.909 166.774L 107.909 167.586L 106.979 167.586L 106.979 166.063L 105.818 166.063L 105.818 167.789L 104.191 167.789L 104.191 169.516L 102.797 169.516L 102.797 164.842L 102.214 164.588L 102.214 159.559L 100.474 159.559L 100.474 163.725L 99.3102 164.233L 99.3102 170.076L 98.6163 170.076L 98.6163 152.545L 98.6163 144.313L 97.9173 144.313L 97.9173 134.258L 97.2206 134.258L 97.2206 142.789L 96.2897 142.789L 96.2897 160.572L 95.5939 160.572L 95.5939 161.488L 94.8971 161.488L 94.8971 166.162L 94.8971 168.805L 93.9662 168.805L 93.9662 166.264L 92.8053 166.264L 92.8053 162.402L 92.8053 154.477L 91.4105 154.477L 91.4105 144.01L 90.8297 143.756L 90.8297 150.41L 89.0868 150.41L 89.0868 154.576L 89.0868 162.301L 88.3888 162.301L 88.3888 164.537L 87.4598 164.944L 87.4598 168.906L 87.4598 170.076L 86.3019 170.076L 86.3019 164.436L 85.6019 164.436L 85.6019 154.373L 85.6019 149.192L 84.9039 149.192L 84.9039 161.387L 83.744 161.387L 83.744 167.891L 83.0482 168.197L 83.0482 166.875L 81.4203 166.875L 81.4203 167.688L 80.4903 167.688L 80.4903 169.516L 79.7936 169.516L 79.7936 167.586L 78.8627 167.586L 78.8627 165.858L 77.7018 165.858L 77.7018 166.774L 77.3509 166.619L 77.3509 168.094L 76.3641 168.526L 76.3641 169.619L 75.2333 170.113L 75.2333 168.399L 73.7504 168.399L 73.7504 167.18L 73.0514 167.18L 73.0514 165.553L 71.6586 165.553L 71.6586 163.926L 70.9606 163.926L 70.9606 161.285L 69.7997 161.285L 69.7997 155.391L 68.6378 155.391L 68.6378 163.113L 67.4759 163.113L 67.4759 165.553L 66.547 165.959L 66.547 169.008L 65.8502 169.008L 65.8502 170.076L 64.9235 170.076L 64.9235 164.029L 64.2235 163.723L 64.2235 157.526L 63.0616 157.526L 63.0616 150.918L 62.3627 150.918L 62.3627 133.877L 61.2018 133.877L 61.2018 148.072L 60.5028 148.072L 60.5028 158.846L 59.5738 158.846L 59.5738 159.658L 58.6449 159.658L 58.6449 164.131L 57.2511 164.131L 57.2511 169.516L 57.2511 170.076L 56.0912 170.076L 56.0912 169.111L 54.9264 169.111L 54.9264 168.297L 53.7655 168.297L 53.7655 166.264L 52.1395 166.264L 52.1395 156.203L 50.9767 156.203L 50.9767 143.602L 49.5829 143.602L 49.5829 154.272L 48.6529 154.272L 48.6529 152.444L 47.4921 152.444L 47.4921 143.195L 46.9093 142.942L 46.9093 137.027L 45.8653 137.027L 45.8653 145.229L 44.7035 145.229L 44.7035 154.576L 43.7735 154.576L 43.7735 161.184L 42.8446 161.184L 42.8446 167.078L 42.3788 167.078L 42.3788 164.74L 40.984 164.74L 40.984 167.789L 39.357 167.789L 39.357 165.959L 38.1962 165.959L 38.1962 169.416L 36.8024 169.416L 36.8024 167.078L 35.4086 167.078L 35.4086 167.992L 34.2467 167.992L 34.2467 169.416L 33.0848 169.416L 33.0848 170.076L 31.693 170.076L 31.693 168.297L 30.0631 168.297L 30.0631 170.076L 27.9752 170.076L 27.9752 169.313L 26.8104 169.313L 26.8104 170.076L 24.7225 170.076L 24.7225 169.211L 23.7887 169.211L 23.7887 167.891L 22.6278 167.891L 22.6278 165.959L 21.233 165.959L 21.233 167.18"
       style="stroke:#33ff00; stroke-width:1.5011699999999999; stroke-linejoin:round; stroke-linecap:round; fill:none" />
    <path
       id="path1495"
       d="M 20.0177 184.338L 26.7545 184.338L 35.7594 209.99L 35.8973 209.99L 44.8341 184.338L 51.64 184.338L 51.64 232.783L 44.628 232.783L 44.628 203.322L 44.4901 203.322L 37.5472 224.143L 34.0414 224.143L 27.1664 203.322L 27.0284 203.322L 27.0284 232.783L 20.0165 232.783L 20.0165 184.338"
       style="stroke:none; fill:#000000" />
    <path
       id="path1497"
       d="M 81.5467 221.897C 81.5467 228.225 76.4598 233.192 70.204 233.192C 63.9481 233.192 58.86 228.225 58.86 221.897L 58.86 184.338L 65.8729 184.338L 65.8729 221.217C 65.8729 224.619 67.7289 226.252 70.2037 226.252C 72.6776 226.252 74.5345 224.619 74.5345 221.217L 74.5345 184.338L 81.5465 184.338L 81.5465 221.897"
       style="stroke:none; fill:#000000" />
    <path
       id="path1499"
       d="M 88.4908 184.338L 95.2267 184.338L 105.814 213.527L 105.951 213.527L 105.951 184.338L 112.964 184.338L 112.964 232.783L 106.364 232.783L 95.6388 203.662L 95.5018 203.662L 95.5018 232.783L 88.4899 232.783L 88.4899 184.338"
       style="stroke:none; fill:#000000" />
    <path
       id="path1501"
       d="M 120.113 232.783L 127.126 232.783L 127.126 184.338L 120.113 184.338L 120.113 232.783z"
       style="stroke:none; fill:#000000" />
    <path
       id="path1503"
       d="M 134.276 184.338L 141.014 184.338L 151.6 213.527L 151.738 213.527L 151.738 184.338L 158.749 184.338L 158.749 232.783L 152.15 232.783L 141.425 203.662L 141.287 203.662L 141.287 232.783L 134.276 232.783L 134.276 184.338"
       style="stroke:none; fill:#000000" />
    <path
       id="path1505"
       d="M 20.6737 186.084L 20.6737 137.012"
       style="stroke:#000000; stroke-width:1.5011699999999999; stroke-linejoin:round; stroke-linecap:round; fill:none" />
    <path
       id="path1507"
       d="M 20.6737 85.7286L 20.6737 0.75058L 158.051 0.75058L 158.051 186.418"
       style="stroke:#000000; stroke-width:1.5011699999999999; stroke-linejoin:round; stroke-linecap:round; fill:none" />
    <path
       id="path1509"
       d="M 158.448 6.28958C 156.016 9.93358 149.909 9.95357 149.909 9.95357L 151.487 5.99257C 143.46 7.99858 135.278 16.4846 135.278 16.4846L 135.262 11.5096L 124.452 19.7246L 126.636 13.6256L 122.321 16.5136C 117.075 19.6236 111.124 20.8776 111.124 20.8776C 102.118 21.4356 89.2484 32.2966 89.2484 32.2966C 90.8124 28.2676 89.6874 19.9646 89.6874 19.9646C 81.7626 35.4766 66.6644 42.4556 64.5016 43.3366C 62.3336 44.2146 50.9547 49.4216 40.6168 58.8716C 30.286 68.3126 27.003 84.0996 27.003 84.0996C 26.1761 87.0626 18.4811 92.0356 14.9361 96.6796C 13.3143 98.8006 4.21231 110.167 1.03433 124.069C -1.65659 135.871 1.75332 147.258 1.75332 147.258C 1.75332 147.258 2.35123 151.57 5.6232 143.869L 6.98501 143.596C 6.98501 143.596 5.3212 147.194 6.34415 146.842C 7.36612 146.494 13.2401 140.16 18.0509 134.807C 22.8649 129.448 39.2609 116.278 54.0287 115.323C 54.0287 115.323 64.0516 111.54 71.4767 117.348C 71.4767 117.348 76.3727 123.407 83.9396 122.653C 83.9396 122.653 84.8275 122.405 87.2464 124.046L 87.1046 120.885C 87.1046 120.885 95.7945 125.985 104.915 122.38L 103.315 120.114C 103.315 120.114 104.954 117.7 109.787 120.973L 110.073 118.819C 110.073 118.819 118.661 123.395 123.072 123.247L 121.862 119.364C 121.862 119.364 130.957 118.088 139.967 117.532C 139.967 117.532 151.189 115.112 158.595 123.294L 158.447 6.28958"
       style="stroke:none; fill:#000000" />
  </g>
</svg>
