<?xml version="1.0" encoding="UTF-8" standalone="no"?>
<svg
   xmlns:dc="http://purl.org/dc/elements/1.1/"
   xmlns:cc="http://web.resource.org/cc/"
   xmlns:rdf="http://www.w3.org/1999/02/22-rdf-syntax-ns#"
   xmlns:svg="http://www.w3.org/2000/svg"
   xmlns="http://www.w3.org/2000/svg"
   xmlns:sodipodi="http://inkscape.sourceforge.net/DTD/sodipodi-0.dtd"
   xmlns:inkscape="http://www.inkscape.org/namespaces/inkscape"
   width="720.99000pt"
   height="188.37000pt"
   id="svg1317"
   sodipodi:version="0.32"
   inkscape:version="0.41"
   sodipodi:docname="logo-horizontal.svg"
   sodipodi:docbase="/stat/home0/ilmari/src/munin/trunk">
  <metadata
     id="metadata1348">
    <rdf:RDF
       id="RDF1350">
      <cc:Work
         rdf:about=""
         id="Work1352">
        <dc:format
           id="format1354">image/svg+xml</dc:format>
        <dc:type
           id="type1356"
           rdf:resource="http://purl.org/dc/dcmitype/StillImage" />
      </cc:Work>
    </rdf:RDF>
  </metadata>
  <sodipodi:namedview
     id="base"
     pagecolor="#ffffff"
     bordercolor="#666666"
     borderopacity="1.0"
     inkscape:pageopacity="0.0"
     inkscape:pageshadow="2"
     inkscape:window-width="1377"
     inkscape:window-height="815"
     showguides="true"
     inkscape:guide-bbox="true"
     showgrid="false"
     inkscape:zoom="1.0976905"
     inkscape:cx="545.65134"
     inkscape:cy="176.18617"
     inkscape:window-x="0"
     inkscape:window-y="0"
     inkscape:current-layer="svg1317" />
  <defs
     id="defs1319">
    <marker
       id="ArrowEnd"
       viewBox="0 0 10 10"
       refX="0"
       refY="5"
       markerUnits="strokeWidth"
       markerWidth="4"
       markerHeight="3"
       orient="auto">
      <path
         d="M 0 0 L 10 5 L 0 10 z"
         id="path1322" />
    </marker>
    <marker
       id="ArrowStart"
       viewBox="0 0 10 10"
       refX="10"
       refY="5"
       markerUnits="strokeWidth"
       markerWidth="4"
       markerHeight="3"
       orient="auto">
      <path
         d="M 10 0 L 0 5 L 10 10 z"
         id="path1325" />
    </marker>
  </defs>
  <g
     transform="matrix(1.000001,0.000000,0.000000,1.000024,-3.915032e-12,-6.962922e-4)"
     id="g1434">
    <path
       style="fill:#000000;stroke:none"
       d="M 233.79197,0.00069627544 L 266.26100,0.00069627544 L 309.66151,123.63310 L 310.32613,123.63310 L 353.39840,0.00069627544 L 386.20051,0.00069627544 L 386.20051,233.48626 L 352.40508,233.48626 L 352.40508,91.495999 L 351.74045,91.495999 L 318.27808,191.84490 L 301.38134,191.84490 L 268.24622,91.495999 L 267.58111,91.495999 L 267.58111,233.48626 L 233.78618,233.48626 L 233.78618,0.00069627544"
       id="path1331" />
    <path
       style="fill:#000000;stroke:none"
       d="M 529.53904,181.02009 C 529.53904,211.51853 505.02196,235.45748 474.87115,235.45748 C 444.71990,235.45748 420.19700,211.51853 420.19700,181.02009 L 420.19700,0.00069627544 L 453.99676,0.00069627544 L 453.99676,177.74276 C 453.99676,194.13904 462.94205,202.00946 474.86972,202.00946 C 486.79305,202.00946 495.74269,194.13904 495.74269,177.74276 L 495.74269,0.00069627544 L 529.53810,0.00069627544 L 529.53810,181.02009"
       id="path1333" />
    <path
       style="fill:#000000;stroke:none"
       d="M 563.53988,0.00069627544 L 596.00458,0.00069627544 L 647.03172,140.68003 L 647.69199,140.68003 L 647.69199,0.00069627544 L 681.49227,0.00069627544 L 681.49227,233.48626 L 649.68249,233.48626 L 597.99076,93.134661 L 597.33050,93.134661 L 597.33050,233.48626 L 563.53554,233.48626 L 563.53554,0.00069627544"
       id="path1335" />
    <path
       style="fill:#000000;stroke:none"
       d="M 715.48876,233.48626 L 749.28898,233.48626 L 749.28898,0.00069627544 L 715.48876,0.00069627544 L 715.48876,233.48626 z "
       id="path1337" />
    <path
       style="fill:#000000;stroke:none"
       d="M 783.28548,0.00069627544 L 815.76034,0.00069627544 L 866.78119,140.68003 L 867.44628,140.68003 L 867.44628,0.00069627544 L 901.23691,0.00069627544 L 901.23691,233.48626 L 869.43196,233.48626 L 817.74120,93.134661 L 817.07611,93.134661 L 817.07611,233.48626 L 783.28548,233.48626 L 783.28548,0.00069627544"
       id="path1339" />
  </g>
  <g
     transform="matrix(1.000001,0.000000,0.000000,1.000024,-5.920878e-6,-7.071723e-4)"
     id="g1447">
    <path
       style="fill:none;stroke:#33ff00;stroke-width:1.8806838;stroke-linecap:round;stroke-linejoin:round"
       d="M 197.74364,208.68709 L 197.74364,207.80136 L 195.98854,207.80136 L 194.52533,208.94159 L 194.52533,208.30785 L 192.77149,208.30785 L 192.77149,203.48996 L 191.31079,203.48996 L 191.31079,199.05381 L 190.43261,199.05381 L 190.43261,198.16683 L 188.96940,198.16683 L 188.96940,203.74446 L 186.92493,203.74446 L 186.92493,208.05461 L 184.73074,208.05461 L 184.73074,206.72102 L 183.56320,207.23000 L 181.95530,207.92736 L 180.78523,207.92736 L 180.78523,209.95457 L 178.44636,209.95457 L 178.44636,208.31034 L 178.44636,205.77166 L 178.44636,202.72773 L 176.69252,202.72773 L 176.69252,201.46026 L 174.93616,201.46026 L 174.93616,195.75414 L 173.18358,195.75414 L 173.18358,201.46026 L 172.30666,201.84075 L 172.30666,208.49747 L 170.70002,208.49747 L 169.09212,209.19732 L 167.33577,209.19732 L 165.87381,208.56359 L 163.24305,208.56359 L 163.24305,207.04038 L 161.48670,207.04038 L 161.48670,209.45057 L 160.02726,209.45057 L 160.02726,211.09728 L 158.85342,211.09728 L 158.85342,212.17389 L 156.22769,212.17389 L 156.23272,212.17638 L 156.23272,211.47777 L 155.05762,211.47777 L 155.05762,202.34974 L 153.89007,202.34974 L 153.89007,196.13713 L 153.15784,195.82026 L 153.15784,191.69973 L 151.84183,191.69973 L 151.84183,201.46276 L 150.67051,201.46276 L 150.67051,211.35303 L 149.50547,211.35303 L 149.50547,212.17638 L 148.04729,212.17638 L 148.04729,211.35303 L 146.87220,211.35303 L 146.87220,206.15340 L 145.99528,206.15340 L 145.99528,200.06679 L 145.11836,200.06679 L 145.11836,180.80148 L 144.53332,180.80148 L 144.53332,171.80318 L 143.07137,171.80318 L 143.07137,184.09366 L 141.90256,184.09366 L 141.90256,209.07008 L 141.02439,209.45307 L 141.02439,211.35303 L 139.85809,211.35303 L 139.85809,209.57657 L 139.27180,209.57657 L 139.27180,206.28314 L 137.80985,206.28314 L 137.80985,204.25344 L 136.63852,204.25344 L 136.63852,208.05710 L 135.76412,208.05710 L 135.76412,209.07008 L 134.59405,209.07008 L 134.59405,207.17012 L 133.13336,207.17012 L 133.13336,209.32332 L 131.08637,209.32332 L 131.08637,211.47777 L 129.33253,211.47777 L 129.33253,205.64691 L 128.59904,205.33004 L 128.59904,199.05631 L 126.40989,199.05631 L 126.40989,204.25344 L 124.94567,204.88717 L 124.94567,212.17638 L 124.07265,212.17638 L 124.07265,190.30626 L 124.07265,180.03675 L 123.19321,180.03675 L 123.19321,167.49303 L 122.31667,167.49303 L 122.31667,178.13555 L 121.14547,178.13555 L 121.14547,200.32004 L 120.27006,200.32004 L 120.27006,201.46276 L 119.39339,201.46276 L 119.39339,207.29362 L 119.39339,210.59079 L 118.22219,210.59079 L 118.22219,207.42087 L 116.76162,207.42087 L 116.76162,202.60298 L 116.76162,192.71645 L 115.00677,192.71645 L 115.00677,179.65876 L 114.27605,179.34189 L 114.27605,187.64283 L 112.08325,187.64283 L 112.08325,192.83996 L 112.08325,202.47699 L 111.20507,202.47699 L 111.20507,205.26642 L 110.03626,205.77416 L 110.03626,210.71680 L 110.03626,212.17638 L 108.57947,212.17638 L 108.57947,205.14042 L 107.69877,205.14042 L 107.69877,192.58671 L 107.69877,186.12336 L 106.82059,186.12336 L 106.82059,201.33676 L 105.36128,201.33676 L 105.36128,209.45057 L 104.48587,209.83231 L 104.48587,208.18310 L 102.43775,208.18310 L 102.43775,209.19732 L 101.26768,209.19732 L 101.26768,211.47777 L 100.39114,211.47777 L 100.39114,209.07008 L 99.219944,209.07008 L 99.219944,206.91438 L 97.759375,206.91438 L 97.759375,208.05710 L 97.317896,207.86374 L 97.317896,209.70381 L 96.076368,210.24274 L 96.076368,211.60627 L 94.653668,212.22254 L 94.653668,210.08431 L 92.787980,210.08431 L 92.787980,208.56359 L 91.908544,208.56359 L 91.908544,206.53389 L 90.156211,206.53389 L 90.156211,204.50419 L 89.278033,204.50419 L 89.278033,201.20951 L 87.817464,201.20951 L 87.817464,193.85668 L 86.355637,193.85668 L 86.355637,203.48996 L 84.893809,203.48996 L 84.893809,206.53389 L 83.725130,207.04038 L 83.725130,210.84404 L 82.848459,210.84404 L 82.848459,212.17638 L 81.682547,212.17638 L 81.682547,204.63268 L 80.801850,204.25095 L 80.801850,196.52012 L 79.340023,196.52012 L 79.340023,188.27657 L 78.460713,188.27657 L 78.460713,167.01773 L 77.000144,167.01773 L 77.000144,184.72615 L 76.120708,184.72615 L 76.120708,198.16683 L 74.951899,198.16683 L 74.951899,199.17981 L 73.783219,199.17981 L 73.783219,204.75993 L 72.029628,204.75993 L 72.029628,211.47777 L 72.029628,212.17638 L 70.570316,212.17638 L 70.570316,210.97253 L 69.104842,210.97253 L 69.104842,209.95706 L 67.644272,209.95706 L 67.644272,207.42087 L 65.598543,207.42087 L 65.598543,194.86966 L 64.135584,194.86966 L 64.135584,179.14977 L 62.381997,179.14977 L 62.381997,192.46072 L 61.211929,192.46072 L 61.211929,190.18027 L 59.751486,190.18027 L 59.751486,178.64203 L 59.018244,178.32641 L 59.018244,170.94739 L 57.704751,170.94739 L 57.704751,181.17947 L 56.243050,181.17947 L 56.243050,192.83996 L 55.072986,192.83996 L 55.072986,201.08351 L 53.904303,201.08351 L 53.904303,208.43634 L 53.318263,208.43634 L 53.318263,205.51966 L 51.563418,205.51966 L 51.563418,209.32332 L 49.516431,209.32332 L 49.516431,207.04038 L 48.055988,207.04038 L 48.055988,211.35303 L 46.302397,211.35303 L 46.302397,208.43634 L 44.548810,208.43634 L 44.548810,209.57657 L 43.086982,209.57657 L 43.086982,211.35303 L 41.625155,211.35303 L 41.625155,212.17638 L 39.874083,212.17638 L 39.874083,209.95706 L 37.823445,209.95706 L 37.823445,212.17638 L 35.196586,212.17638 L 35.196586,211.22453 L 33.731111,211.22453 L 33.731111,212.17638 L 31.104250,212.17638 L 31.104250,211.09728 L 29.929403,211.09728 L 29.929403,209.45057 L 28.468834,209.45057 L 28.468834,207.04038 L 26.713987,207.04038 L 26.713987,208.56359"
       id="path1329" />
    <path
       style="fill:#000000;stroke:none"
       d="M 199.34902,7.8510028 C 196.28923,12.396933 188.60580,12.421871 188.60580,12.421871 L 190.59114,7.4804792 C 180.49209,9.9829990 170.19802,20.569403 170.19802,20.569403 L 170.17789,14.363035 L 156.57745,24.611339 L 159.32522,17.002769 L 153.89637,20.605581 C 147.29619,24.485341 139.80902,26.049720 139.80902,26.049720 C 128.47826,26.745831 112.28656,40.295050 112.28656,40.295050 C 114.25428,35.268827 112.83888,24.910742 112.83888,24.910742 C 102.86841,44.262133 83.872833,52.968514 81.151738,54.067573 C 78.424102,55.162887 64.107907,61.658677 51.101428,73.447657 C 38.103885,85.225407 33.973427,104.91987 33.973427,104.91987 C 32.933075,108.61624 23.251724,114.82011 18.791635,120.61356 C 16.751191,123.25953 5.2996562,137.43924 1.3013276,154.78214 C -2.0842138,169.50526 2.2059142,183.71067 2.2059142,183.71067 C 2.2059142,183.71067 2.9581659,189.08994 7.0747468,179.48286 L 8.7880878,179.14229 C 8.7880878,179.14229 6.6947899,183.63083 7.9817995,183.19171 C 9.2675757,182.75758 16.657837,174.85584 22.710474,168.17791 C 28.767138,161.49250 49.395525,145.06278 67.975415,143.87140 C 67.975415,143.87140 80.585576,139.15207 89.927359,146.39762 C 89.927359,146.39762 96.087188,153.95628 105.60737,153.01566 C 105.60737,153.01566 106.72447,152.70628 109.76777,154.75345 L 109.58937,150.81006 C 109.58937,150.81006 120.52244,157.17237 131.99726,152.67509 L 129.98425,149.84823 C 129.98425,149.84823 132.04633,146.83674 138.12690,150.91984 L 138.48673,148.23271 C 138.48673,148.23271 149.29159,153.94132 154.84122,153.75669 L 153.31888,148.91260 C 153.31888,148.91260 164.76162,147.32077 176.09742,146.62716 C 176.09742,146.62716 190.21621,143.60818 199.53396,153.81532 L 199.34776,7.8510028"
       id="path1345" />
    <g
       id="g1402"
       transform="matrix(3.503825,0.000000,0.000000,3.474239,-9.146037e-6,4.692283e-3)">
      <path
         style="fill:none;stroke:#000000;stroke-width:0.53903234;stroke-linecap:round;stroke-linejoin:round"
         d="M 7.4234075,66.938004 L 7.4234075,49.317485"
         id="path1341" />
      <path
         style="fill:none;stroke:#000000;stroke-width:0.53903234;stroke-linecap:round;stroke-linejoin:round"
         d="M 7.4234075,30.782977 L 7.4234075,0.26951115 L 56.752135,0.26951115 L 56.752135,66.938004"
         id="path1343" />
      <path
         style="fill:none;stroke:#000000;stroke-width:0.54210943;stroke-linecap:round;stroke-linejoin:round"
         d="M 7.4276203,66.936465 L 56.634497,66.936465"
         id="path1376" />
    </g>
  </g>
</svg>
