<?xml version="1.0" encoding="UTF-8" standalone="no"?>
<!-- Created with Inkscape (http://www.inkscape.org/) -->
<svg
   xmlns:dc="http://purl.org/dc/elements/1.1/"
   xmlns:cc="http://web.resource.org/cc/"
   xmlns:rdf="http://www.w3.org/1999/02/22-rdf-syntax-ns#"
   xmlns:svg="http://www.w3.org/2000/svg"
   xmlns="http://www.w3.org/2000/svg"
   xmlns:sodipodi="http://inkscape.sourceforge.net/DTD/sodipodi-0.dtd"
   xmlns:inkscape="http://www.inkscape.org/namespaces/inkscape"
   inkscape:export-ydpi="38.004967"
   inkscape:export-xdpi="38.004967"
   inkscape:export-filename="/stat/home0/ilmari/src/munin/trunk/munin.png"
   sodipodi:docname="logo-horizontal.svg"
   sodipodi:docbase="/stat/home0/ilmari/src/munin/trunk"
   inkscape:version="0.41"
   sodipodi:version="0.32"
   id="svg1487"
   height="151.00000pt"
   width="577.81000pt">
  <defs
     id="defs3" />
  <sodipodi:namedview
     inkscape:window-y="582"
     inkscape:window-x="0"
     inkscape:window-height="541"
     inkscape:window-width="872"
     inkscape:guide-bbox="true"
     showguides="true"
     inkscape:current-layer="layer1"
     inkscape:document-units="px"
     inkscape:cy="123.62558"
     inkscape:cx="411.21962"
     inkscape:zoom="1.00000000"
     inkscape:pageshadow="2"
     inkscape:pageopacity="0.0"
     borderopacity="1.0"
     bordercolor="#666666"
     pagecolor="#ffffff"
     id="base" />
  <metadata
     id="metadata4">
    <rdf:RDF
       id="RDF5">
      <cc:Work
         id="Work6"
         rdf:about="">
        <dc:format
           id="format7">image/svg+xml</dc:format>
        <dc:type
           rdf:resource="http://purl.org/dc/dcmitype/StillImage"
           id="type9" />
      </cc:Work>
    </rdf:RDF>
  </metadata>
  <g
     id="layer1"
     inkscape:groupmode="layer"
     inkscape:label="Layer 1">
    <path
       style="fill:#000000;stroke:none"
       d="M 186.28371,0.0000000 L 212.31142,0.0000000 L 247.10197,99.107840 L 247.63475,99.107840 L 282.16221,0.0000000 L 308.45693,0.0000000 L 308.45693,187.16990 L 281.36597,187.16990 L 281.36597,73.345690 L 280.83318,73.345690 L 254.00920,153.78860 L 240.46446,153.78860 L 213.90282,73.345690 L 213.36964,73.345690 L 213.36964,187.16990 L 186.27908,187.16990 L 186.27908,0.0000000"
       id="path1495" />
    <path
       style="fill:#000000;stroke:none"
       d="M 424.00186,145.11120 C 424.00186,169.55980 404.34855,188.75000 380.17918,188.75000 C 356.00941,188.75000 336.35146,169.55980 336.35146,145.11120 L 336.35146,0.0000000 L 363.44591,0.0000000 L 363.44591,142.48400 C 363.44591,155.62780 370.61658,161.93690 380.17802,161.93690 C 389.73598,161.93690 396.91013,155.62780 396.91013,142.48400 L 396.91013,0.0000000 L 424.00109,0.0000000 L 424.00109,145.11120"
       id="path1497" />
    <path
       style="fill:#000000;stroke:none"
       d="M 450.83049,0.0000000 L 476.85471,0.0000000 L 517.75889,112.77324 L 518.28820,112.77324 L 518.28820,0.0000000 L 545.38302,0.0000000 L 545.38302,187.16990 L 519.88383,187.16990 L 478.44690,74.659280 L 477.91759,74.659280 L 477.91759,187.16990 L 450.82702,187.16990 L 450.82702,0.0000000"
       id="path1499" />
    <path
       style="fill:#000000;stroke:none"
       d="M 573.00328,187.16990 L 600.09811,187.16990 L 600.09811,0.0000000 L 573.00328,0.0000000 L 573.00328,187.16990 z "
       id="path1501" />
    <path
       style="fill:#000000;stroke:none"
       d="M 627.72224,0.0000000 L 653.75458,0.0000000 L 694.65376,112.77324 L 695.18694,112.77324 L 695.18694,0.0000000 L 722.27402,0.0000000 L 722.27402,187.16990 L 696.77867,187.16990 L 655.34250,74.659280 L 654.80933,74.659280 L 654.80933,187.16990 L 627.72224,187.16990 L 627.72224,0.0000000"
       id="path1503" />
    <g
       id="g1609">
      <path
         style="fill:none;stroke:#33ff00;stroke-width:1.5011624;stroke-linecap:round;stroke-linejoin:round"
         d="M 157.17279,167.28866 L 157.17279,166.57865 L 155.77779,166.57865 L 154.61478,167.49266 L 154.61478,166.98465 L 153.22077,166.98465 L 153.22077,163.12259 L 152.05976,163.12259 L 152.05976,159.56654 L 151.36176,159.56654 L 151.36176,158.85553 L 150.19875,158.85553 L 150.19875,163.32660 L 148.57375,163.32660 L 148.57375,166.78165 L 146.82973,166.78165 L 146.82973,165.71263 L 145.90173,166.12064 L 144.62373,166.67965 L 143.69373,166.67965 L 143.69373,168.30467 L 141.83471,168.30467 L 141.83471,166.98665 L 141.83471,164.95162 L 141.83471,162.51159 L 140.44071,162.51159 L 140.44071,161.49557 L 139.04470,161.49557 L 139.04470,156.92150 L 137.65169,156.92150 L 137.65169,161.49557 L 136.95468,161.80057 L 136.95468,167.13665 L 135.67769,167.13665 L 134.39968,167.69766 L 133.00367,167.69766 L 131.84166,167.18966 L 129.75065,167.18966 L 129.75065,165.96864 L 128.35465,165.96864 L 128.35465,167.90067 L 127.19464,167.90067 L 127.19464,169.22069 L 126.26163,169.22069 L 126.26163,170.08370 L 124.17462,170.08370 L 124.17862,170.08570 L 124.17862,169.52569 L 123.24462,169.52569 L 123.24462,162.20858 L 122.31661,162.20858 L 122.31661,157.22851 L 121.73461,156.97450 L 121.73461,153.67145 L 120.68861,153.67145 L 120.68861,161.49757 L 119.75760,161.49757 L 119.75760,169.42569 L 118.83159,169.42569 L 118.83159,170.08570 L 117.67260,170.08570 L 117.67260,169.42569 L 116.73858,169.42569 L 116.73858,165.25763 L 116.04158,165.25763 L 116.04158,160.37855 L 115.34458,160.37855 L 115.34458,144.93532 L 114.87957,144.93532 L 114.87957,137.72221 L 113.71757,137.72221 L 113.71757,147.57436 L 112.78856,147.57436 L 112.78856,167.59566 L 112.09056,167.90267 L 112.09056,169.42569 L 111.16356,169.42569 L 111.16356,168.00167 L 110.69756,168.00167 L 110.69756,165.36163 L 109.53555,165.36163 L 109.53555,163.73460 L 108.60455,163.73460 L 108.60455,166.78365 L 107.90954,166.78365 L 107.90954,167.59566 L 106.97953,167.59566 L 106.97953,166.07264 L 105.81853,166.07264 L 105.81853,167.79866 L 104.19152,167.79866 L 104.19152,169.52569 L 102.79751,169.52569 L 102.79751,164.85162 L 102.21451,164.59762 L 102.21451,159.56854 L 100.47451,159.56854 L 100.47451,163.73460 L 99.310695,164.24261 L 99.310695,170.08570 L 98.616791,170.08570 L 98.616791,152.55444 L 98.616791,144.32231 L 97.917788,144.32231 L 97.917788,134.26716 L 97.221084,134.26716 L 97.221084,142.79829 L 96.290179,142.79829 L 96.290179,160.58156 L 95.594376,160.58156 L 95.594376,161.49757 L 94.897572,161.49757 L 94.897572,166.17164 L 94.897572,168.81468 L 93.966667,168.81468 L 93.966667,166.27364 L 92.805762,166.27364 L 92.805762,162.41158 L 92.805762,154.48646 L 91.410955,154.48646 L 91.410955,144.01931 L 90.830151,143.76530 L 90.830151,150.41940 L 89.087243,150.41940 L 89.087243,154.58547 L 89.087243,162.31058 L 88.389240,162.31058 L 88.389240,164.54662 L 87.460235,164.95362 L 87.460235,168.91568 L 87.460235,170.08570 L 86.302330,170.08570 L 86.302330,164.44561 L 85.602326,164.44561 L 85.602326,154.38246 L 85.602326,149.20139 L 84.904323,149.20139 L 84.904323,161.39657 L 83.744416,161.39657 L 83.744416,167.90067 L 83.048613,168.20667 L 83.048613,166.88465 L 81.420704,166.88465 L 81.420704,167.69766 L 80.490700,167.69766 L 80.490700,169.52569 L 79.793997,169.52569 L 79.793997,167.59566 L 78.863092,167.59566 L 78.863092,165.86764 L 77.702186,165.86764 L 77.702186,166.78365 L 77.351284,166.62865 L 77.351284,168.10367 L 76.364479,168.53568 L 76.364479,169.62869 L 75.233673,170.12270 L 75.233673,168.40867 L 73.750766,168.40867 L 73.750766,167.18966 L 73.051763,167.18966 L 73.051763,165.56263 L 71.658956,165.56263 L 71.658956,163.93561 L 70.960952,163.93561 L 70.960952,161.29457 L 69.800046,161.29457 L 69.800046,155.40048 L 68.638141,155.40048 L 68.638141,163.12259 L 67.476235,163.12259 L 67.476235,165.56263 L 66.547330,165.96864 L 66.547330,169.01768 L 65.850527,169.01768 L 65.850527,170.08570 L 64.923822,170.08570 L 64.923822,164.03861 L 64.223818,163.73260 L 64.223818,157.53551 L 63.061913,157.53551 L 63.061913,150.92741 L 62.363009,150.92741 L 62.363009,133.88616 L 61.202103,133.88616 L 61.202103,148.08137 L 60.503100,148.08137 L 60.503100,158.85553 L 59.574095,158.85553 L 59.574095,159.66754 L 58.645191,159.66754 L 58.645191,164.14061 L 57.251384,164.14061 L 57.251384,169.52569 L 57.251384,170.08570 L 56.091477,170.08570 L 56.091477,169.12068 L 54.926672,169.12068 L 54.926672,168.30667 L 53.765765,168.30667 L 53.765765,166.27364 L 52.139758,166.27364 L 52.139758,156.21249 L 50.976952,156.21249 L 50.976952,143.61130 L 49.583145,143.61130 L 49.583145,154.28146 L 48.653140,154.28146 L 48.653140,152.45343 L 47.492334,152.45343 L 47.492334,143.20430 L 46.909532,142.95129 L 46.909532,137.03620 L 45.865526,137.03620 L 45.865526,145.23833 L 44.703721,145.23833 L 44.703721,154.58547 L 43.773716,154.58547 L 43.773716,161.19357 L 42.844811,161.19357 L 42.844811,167.08765 L 42.379009,167.08765 L 42.379009,164.74962 L 40.984202,164.74962 L 40.984202,167.79866 L 39.357193,167.79866 L 39.357193,165.96864 L 38.196388,165.96864 L 38.196388,169.42569 L 36.802581,169.42569 L 36.802581,167.08765 L 35.408774,167.08765 L 35.408774,168.00167 L 34.246868,168.00167 L 34.246868,169.42569 L 33.084962,169.42569 L 33.084962,170.08570 L 31.693155,170.08570 L 31.693155,168.30667 L 30.063247,168.30667 L 30.063247,170.08570 L 27.975337,170.08570 L 27.975337,169.32269 L 26.810530,169.32269 L 26.810530,170.08570 L 24.722620,170.08570 L 24.722620,169.22069 L 23.788816,169.22069 L 23.788816,167.90067 L 22.627909,167.90067 L 22.627909,165.96864 L 21.233103,165.96864 L 21.233103,167.18966"
         id="path1493" />
      <path
         style="fill:#000000;stroke:none"
         d="M 158.44880,6.2968219 C 156.01678,9.9408765 149.90975,9.9608668 149.90975,9.9608668 L 151.48776,5.9998074 C 143.46072,8.0058475 135.27868,16.491995 135.27868,16.491995 L 135.26268,11.516920 L 124.45263,19.732043 L 126.63664,13.632952 L 122.32161,16.520995 C 117.07559,19.631042 111.12456,20.885061 111.12456,20.885061 C 102.11851,21.443069 89.248844,32.304232 89.248844,32.304232 C 90.812852,28.275172 89.687846,19.972047 89.687846,19.972047 C 81.763006,35.484280 66.664731,42.463384 64.501920,43.344398 C 62.333909,44.222411 50.954951,49.429489 40.617000,58.879631 C 30.286148,68.320772 27.003131,84.108009 27.003131,84.108009 C 26.176228,87.071053 18.481189,92.044128 14.936171,96.688198 C 13.314363,98.809230 4.2123269,110.17580 1.0343309,124.07801 C -1.6566026,135.88019 1.7533245,147.26736 1.7533245,147.26736 C 1.7533245,147.26736 2.3512375,151.57942 5.6232240,143.87831 L 6.9850408,143.60530 C 6.9850408,143.60530 5.3212224,147.20336 6.3441776,146.85135 C 7.3661527,146.50334 13.240163,140.16925 18.050987,134.81617 C 22.865011,129.45709 39.261093,116.28689 54.028967,115.33188 C 54.028967,115.33188 64.051918,111.54882 71.477055,117.35691 C 71.477055,117.35691 76.373080,123.41600 83.940017,122.66199 C 83.940017,122.66199 84.827921,122.41398 87.246834,124.05501 L 87.105034,120.89396 C 87.105034,120.89396 95.794977,125.99404 104.91552,122.38898 L 103.31552,120.12295 C 103.31552,120.12295 104.95452,117.70891 109.78755,120.98196 L 110.07355,118.82793 C 110.07355,118.82793 118.66160,123.40400 123.07262,123.25600 L 121.86261,119.37294 C 121.86261,119.37294 130.95765,118.09692 139.96770,117.54091 C 139.96770,117.54091 151.18976,115.12087 158.59580,123.30300 L 158.44780,6.2968219"
         id="path1509" />
      <g
         id="g1604">
        <path
           style="fill:none;stroke:#000000;stroke-width:1.5011631;stroke-linecap:round;stroke-linejoin:round"
           d="M 20.673800,186.09538 L 20.673800,137.02260"
           id="path1505" />
        <path
           style="fill:none;stroke:#000000;stroke-width:1.5011778;stroke-linecap:round;stroke-linejoin:round"
           d="M 20.673816,85.401045 L 20.673816,0.41886088 L 158.05468,0.41886088 L 158.05468,186.09537"
           id="path1507" />
        <path
           style="fill:none;stroke:#000000;stroke-width:1.5250000;stroke-linecap:round;stroke-linejoin:round"
           d="M 20.685718,186.08346 L 157.58518,186.08346"
           id="path1506" />
      </g>
    </g>
  </g>
</svg>
