<svg xmlns:rdf="http://www.w3.org/1999/02/22-rdf-syntax-ns#" xmlns="http://www.w3.org/2000/svg" xmlns:cc="http://creativecommons.org/ns#" xmlns:dc="http://purl.org/dc/elements/1.1/" height="151pt" width="577.81pt" version="1.1"><metadata><rdf:RDF><cc:Work rdf:about=""><dc:format>image/svg+xml</dc:format><dc:type rdf:resource="http://purl.org/dc/dcmitype/StillImage"/><dc:title/></cc:Work></rdf:RDF></metadata><g><path fill="#FFF" d="M186.28 0h26.03l34.79 99.108h0.53l34.53-99.108h26.3v187.17h-27.09v-113.82h-0.54l-26.82 80.444h-13.55l-26.56-80.444h-0.53v113.82h-27.09v-187.17"/><path fill="#FFF" d="M424 145.11c0 24.45-19.65 43.64-43.82 43.64s-43.83-19.19-43.83-43.64v-145.11h27.1v142.48c0 13.2 7.2 19.5 16.7 19.46s16.73-6.31 16.73-19.46v-142.48h27.09v145.11"/><path fill="#FFF" d="M450.83 0h26.02l40.91 112.77h0.53v-112.77h27.09v187.17h-25.5l-41.43-112.51h-0.53v112.51h-27.09v-187.17"/><path fill="#FFF" d="M573 187.17h27.1v-187.17h-27.1v187.17z"/><path fill="#FFF" d="M627.72 0h26.03l40.9 112.77h0.54v-112.77h27.08v187.17h-25.49l-41.44-112.51h-0.53v112.51h-27.09v-187.17"/><g><path stroke-linejoin="round" d="M157.17 167.29v-0.71h-1.39l-1.17 0.91v-0.51h-1.39v-3.86h-1.16v-3.55h-0.7v-0.71h-1.16v4.47h-1.63v3.45h-1.74v-1.07l-0.93 0.41-1.28 0.56h-0.93v1.62h-1.86v-1.31-2.04-2.44h-1.39v-1.01h-1.4v-4.58h-1.39v4.58l-0.7 0.3v5.34h-1.27l-1.28 0.56h-1.4l-1.16-0.51h-2.09v-1.22h-1.4v1.93h-1.16v1.32h-0.93v0.86h-2.09l0.01 0.01v-0.56h-0.94v-7.32h-0.92v-4.98l-0.59-0.26v-3.3h-1.04v7.83h-0.93v7.93h-0.93v0.66h-1.16v-0.66h-0.93v-4.17h-0.7v-4.88h-0.7v-15.44h-0.46v-7.22h-1.16v9.85h-0.93v20.03l-0.7 0.3v1.53h-0.93v-1.43h-0.46v-2.64h-1.16v-1.63h-0.94v3.05h-0.69v0.82h-0.93v-1.53h-1.16v1.73h-1.63v1.73h-1.39v-4.68l-0.59-0.25v-5.03h-1.74v4.16l-1.159 0.51v5.85h-0.694v-17.54-8.23h-0.699v-10.05h-0.697v8.53h-0.931v17.78h-0.696v0.92h-0.696v4.67 2.64h-0.931v-2.54h-1.161v-3.86-7.92h-1.395v-10.47l-0.581-0.25v6.65h-1.743v4.17 7.72h-0.698v2.24l-0.929 0.4v3.97 1.17h-1.158v-5.64h-0.7v-10.07-5.18h-0.698v12.2h-1.16v6.5l-0.695 0.31v-1.33h-1.628v0.82h-0.93v1.83h-0.697v-1.93h-0.931v-1.73h-1.161v0.91l-0.351-0.15v1.47l-0.987 0.44v1.09l-1.13 0.49v-1.71h-1.483v-1.22h-0.699v-1.63h-1.393v-1.62h-0.698v-2.65h-1.161v-5.89h-1.162v7.72h-1.162v2.44l-0.929 0.41v3.05h-0.696v1.07h-0.927v-6.05l-0.7-0.31v-6.19h-1.162v-6.61h-0.699v-17.04h-1.161v14.19h-0.699v10.78h-0.929v0.81h-0.929v4.47h-1.394v5.39 0.56h-1.16v-0.97h-1.164v-0.81h-1.161v-2.04h-1.626v-10.06h-1.163v-12.6h-1.394v10.67h-0.93v-1.83h-1.161v-9.25l-0.582-0.25v-5.91h-1.044v8.2h-1.162v9.35h-0.93v6.6h-0.929v5.9h-0.466v-2.34h-1.395v3.05h-1.627v-1.83h-1.161v3.46h-1.393v-2.34h-1.394v0.91h-1.162v1.43h-1.162v0.66h-1.392v-1.78h-1.63v1.78h-2.088v-0.77h-1.164v0.77h-2.088v-0.87h-0.934v-1.32h-1.161v-1.93h-1.395v1.22" stroke="#3F0" stroke-linecap="round" stroke-width="1.5011624" fill="none"/><path fill="#FFF" d="M158.45 6.2968c-2.43 3.6441-8.54 3.6641-8.54 3.6641l1.58-3.9611c-8.03 2.006-16.21 10.492-16.21 10.492l-0.02-4.975-10.81 8.2 2.19-6.099-4.32 2.888c-5.24 3.11-11.2 4.364-11.2 4.364-9 0.558-21.871 11.419-21.871 11.4 1.564-4.029 0.439-12.332 0.439-12.332-7.925 15.512-23.023 22.491-25.186 23.372-2.168 0.878-13.547 6.085-23.885 15.536-10.331 9.441-13.614 25.228-13.614 25.228-0.827 2.963-8.522 7.936-12.067 12.58-1.622 2.121-10.724 13.492-13.902 27.392-2.6909 11.8 0.7 23.2 0.7 23.19s0.5979 4.3 3.8699-3.39l1.3618-0.27s-1.6638 3.59-0.6408 3.24c1.022-0.35 6.8958-6.68 11.707-12.03 4.814-5.36 21.21-18.53 35.978-19.49 0 0 10.023-3.78 17.4 2 0 0 4.9 6.1 12.5 5.3 0 0 0.888-0.25 3.3 1.4l-0.142-3.17s8.69 5.1 17.8 1.5l-1.6-2.27s1.63-2.41 6.5 0.86l0.28-2.15s8.59 4.6 13 4.43l-1.21-3.89s9.1-1.27 18.11-1.83c0 0 11.22-2.42 18.6 5.76l-0.15-117"/><g stroke-linejoin="round" stroke="#FFF" stroke-linecap="round" fill="none"><path d="M20.674 186.1v-49.08" stroke-width="1.5011631"/><path d="M20.674 85.401v-84.982h137.38v185.68" stroke-width="1.5011778"/><path d="M20.686 186.08h136.9" stroke-width="1.5250000"/></g></g></g></svg>